<svg width="66" height="10" viewBox="0 0 66 10" fill="none" xmlns="http://www.w3.org/2000/svg">
<g clip-path="url(#clip0_1_2)">
<path d="M4.764 9.144C3.924 9.144 3.188 8.992 2.556 8.688C1.932 8.384 1.452 7.956 1.116 7.404C0.78 6.852 0.612 6.216 0.612 5.496C0.612 4.544 0.828 3.688 1.26 2.928C1.7 2.16 2.316 1.556 3.108 1.116C3.9 0.676 4.808 0.456 5.832 0.456C6.584 0.456 7.248 0.584 7.824 0.84C8.4 1.096 8.836 1.464 9.132 1.944L7.728 3.096C7.28 2.44 6.604 2.112 5.7 2.112C5.084 2.112 4.54 2.256 4.068 2.544C3.596 2.832 3.228 3.224 2.964 3.72C2.708 4.216 2.58 4.768 2.58 5.376C2.58 6.024 2.784 6.54 3.192 6.924C3.608 7.3 4.188 7.488 4.932 7.488C5.82 7.488 6.564 7.164 7.164 6.516L8.316 7.692C7.484 8.66 6.3 9.144 4.764 9.144ZM13.329 9.144C12.489 9.144 11.761 8.992 11.145 8.688C10.529 8.384 10.057 7.956 9.729 7.404C9.401 6.852 9.237 6.216 9.237 5.496C9.237 4.544 9.453 3.688 9.885 2.928C10.325 2.16 10.937 1.556 11.721 1.116C12.513 0.676 13.417 0.456 14.433 0.456C15.273 0.456 16.001 0.608 16.617 0.912C17.233 1.216 17.705 1.644 18.033 2.196C18.361 2.748 18.525 3.384 18.525 4.104C18.525 5.056 18.305 5.916 17.865 6.684C17.433 7.444 16.821 8.044 16.029 8.484C15.245 8.924 14.345 9.144 13.329 9.144ZM13.497 7.488C14.113 7.488 14.653 7.34 15.117 7.044C15.581 6.748 15.937 6.352 16.185 5.856C16.433 5.36 16.557 4.812 16.557 4.212C16.557 3.572 16.357 3.064 15.957 2.688C15.557 2.304 14.993 2.112 14.265 2.112C13.649 2.112 13.109 2.26 12.645 2.556C12.181 2.852 11.825 3.248 11.577 3.744C11.329 4.24 11.205 4.788 11.205 5.388C11.205 6.028 11.405 6.54 11.805 6.924C12.205 7.3 12.769 7.488 13.497 7.488ZM24.9568 7.2H21.0448L19.9528 9H17.8768L23.3128 0.599999H25.2328L27.2968 9H25.3528L24.9568 7.2ZM24.6328 5.724L23.9248 2.484L21.9448 5.724H24.6328ZM30.8424 2.184H28.1544L28.4784 0.599999H35.7984L35.4744 2.184H32.7984L31.4304 9H29.4864L30.8424 2.184ZM36.8444 0.599999H38.8004L37.1204 9H35.1644L36.8444 0.599999ZM48.4859 0.599999L46.8059 9H45.2099L42.0779 3.744L41.0219 9H39.1019L40.7819 0.599999H42.3899L45.5219 5.868L46.5659 0.599999H48.4859ZM55.3453 4.668H57.1213L56.4253 8.124C56.0013 8.452 55.5093 8.704 54.9493 8.88C54.3893 9.056 53.8093 9.144 53.2093 9.144C52.3693 9.144 51.6373 8.992 51.0133 8.688C50.3893 8.384 49.9053 7.956 49.5613 7.404C49.2253 6.852 49.0573 6.216 49.0573 5.496C49.0573 4.544 49.2773 3.684 49.7173 2.916C50.1573 2.148 50.7773 1.548 51.5773 1.116C52.3773 0.676 53.2973 0.456 54.3373 0.456C55.1373 0.456 55.8293 0.58 56.4133 0.827999C57.0053 1.076 57.4813 1.44 57.8413 1.92L56.4493 3.048C56.1693 2.72 55.8533 2.484 55.5013 2.34C55.1493 2.188 54.7333 2.112 54.2533 2.112C53.6133 2.112 53.0493 2.256 52.5613 2.544C52.0733 2.824 51.6933 3.212 51.4213 3.708C51.1573 4.204 51.0253 4.76 51.0253 5.376C51.0253 6.024 51.2333 6.54 51.6493 6.924C52.0733 7.3 52.6773 7.488 53.4613 7.488C53.9573 7.488 54.4213 7.388 54.8533 7.188L55.3453 4.668ZM60.9791 9.144C60.3151 9.144 59.6791 9.056 59.0711 8.88C58.4631 8.704 57.9751 8.48 57.6071 8.208L58.3991 6.708C58.7831 6.988 59.2151 7.204 59.6951 7.356C60.1751 7.508 60.6671 7.584 61.1711 7.584C61.7071 7.584 62.1311 7.496 62.4431 7.32C62.7551 7.144 62.9111 6.904 62.9111 6.6C62.9111 6.352 62.7871 6.164 62.5391 6.036C62.2911 5.9 61.8951 5.756 61.3511 5.604C60.8071 5.444 60.3631 5.292 60.0191 5.148C59.6751 4.996 59.3751 4.772 59.1191 4.476C58.8711 4.18 58.7471 3.788 58.7471 3.3C58.7471 2.732 58.9031 2.232 59.2151 1.8C59.5351 1.368 59.9831 1.036 60.5591 0.804C61.1431 0.572 61.8191 0.456 62.5871 0.456C63.1551 0.456 63.6911 0.52 64.1951 0.648C64.6991 0.767999 65.1311 0.944 65.4911 1.176L64.7591 2.664C64.4471 2.448 64.0951 2.288 63.7031 2.184C63.3111 2.072 62.9031 2.016 62.4791 2.016C61.9271 2.016 61.4911 2.112 61.1711 2.304C60.8511 2.496 60.6911 2.744 60.6911 3.048C60.6911 3.232 60.7591 3.388 60.8951 3.516C61.0311 3.636 61.2031 3.736 61.4111 3.816C61.6191 3.888 61.9111 3.976 62.2871 4.08C62.8231 4.224 63.2631 4.372 63.6071 4.524C63.9511 4.668 64.2431 4.884 64.4831 5.172C64.7311 5.452 64.8551 5.824 64.8551 6.288C64.8551 6.864 64.6951 7.368 64.3751 7.8C64.0551 8.224 63.6031 8.556 63.0191 8.796C62.4351 9.028 61.7551 9.144 60.9791 9.144Z" fill="#322F50"/>
</g>
<defs>
<clipPath id="clip0_1_2">
<rect width="66" height="10" fill="white"/>
</clipPath>
</defs>
</svg>
